<mxfile host="app.diagrams.net" modified="2023-05-20T16:53:33.973Z" agent="Mozilla/5.0 (Macintosh; Intel Mac OS X 10_15_7) AppleWebKit/537.36 (KHTML, like Gecko) Chrome/113.0.0.0 Safari/537.36" etag="kEyD3H8tSEKwUBk3ID4Z" version="21.3.2" type="device">
  <diagram name="Page-1" id="K2pM_rMQWQo787NUlK6-">
    <mxGraphModel dx="2055" dy="788" grid="1" gridSize="10" guides="1" tooltips="1" connect="1" arrows="1" fold="1" page="1" pageScale="1" pageWidth="850" pageHeight="1100" math="0" shadow="0">
      <root>
        <mxCell id="0" />
        <mxCell id="1" parent="0" />
        <mxCell id="g8oJiTdSOKs6w7evgSrv-41" value="Client" style="html=1;whiteSpace=wrap;" vertex="1" parent="1">
          <mxGeometry y="40" width="110" height="50" as="geometry" />
        </mxCell>
        <mxCell id="g8oJiTdSOKs6w7evgSrv-42" value="Extends" style="endArrow=block;endSize=16;endFill=0;html=1;rounded=0;entryX=0.5;entryY=1;entryDx=0;entryDy=0;" edge="1" parent="1" target="g8oJiTdSOKs6w7evgSrv-41">
          <mxGeometry width="160" relative="1" as="geometry">
            <mxPoint x="55" y="160" as="sourcePoint" />
            <mxPoint x="390" y="310" as="targetPoint" />
          </mxGeometry>
        </mxCell>
        <mxCell id="g8oJiTdSOKs6w7evgSrv-44" value="User" style="swimlane;fontStyle=1;align=center;verticalAlign=top;childLayout=stackLayout;horizontal=1;startSize=26;horizontalStack=0;resizeParent=1;resizeParentMax=0;resizeLast=0;collapsible=1;marginBottom=0;whiteSpace=wrap;html=1;" vertex="1" parent="1">
          <mxGeometry x="-25" y="160" width="160" height="180" as="geometry" />
        </mxCell>
        <mxCell id="g8oJiTdSOKs6w7evgSrv-45" value="+&amp;nbsp;order_id&lt;span style=&quot;background-color: initial;&quot;&gt;: int&lt;br&gt;&lt;/span&gt;+&amp;nbsp;name: string&lt;br&gt;+&amp;nbsp;address: string&lt;br&gt;+&amp;nbsp;order: string&lt;br&gt;+&amp;nbsp;payment_type: string&lt;br&gt;+&amp;nbsp;status: string&lt;br&gt;" style="text;strokeColor=none;fillColor=none;align=left;verticalAlign=top;spacingLeft=4;spacingRight=4;overflow=hidden;rotatable=0;points=[[0,0.5],[1,0.5]];portConstraint=eastwest;whiteSpace=wrap;html=1;" vertex="1" parent="g8oJiTdSOKs6w7evgSrv-44">
          <mxGeometry y="26" width="160" height="102" as="geometry" />
        </mxCell>
        <mxCell id="g8oJiTdSOKs6w7evgSrv-46" value="" style="line;strokeWidth=1;fillColor=none;align=left;verticalAlign=middle;spacingTop=-1;spacingLeft=3;spacingRight=3;rotatable=0;labelPosition=right;points=[];portConstraint=eastwest;strokeColor=inherit;" vertex="1" parent="g8oJiTdSOKs6w7evgSrv-44">
          <mxGeometry y="128" width="160" height="8" as="geometry" />
        </mxCell>
        <mxCell id="g8oJiTdSOKs6w7evgSrv-47" value="+&amp;nbsp;make_order()&lt;br&gt;+ give_feeback()" style="text;strokeColor=none;fillColor=none;align=left;verticalAlign=top;spacingLeft=4;spacingRight=4;overflow=hidden;rotatable=0;points=[[0,0.5],[1,0.5]];portConstraint=eastwest;whiteSpace=wrap;html=1;" vertex="1" parent="g8oJiTdSOKs6w7evgSrv-44">
          <mxGeometry y="136" width="160" height="44" as="geometry" />
        </mxCell>
        <mxCell id="g8oJiTdSOKs6w7evgSrv-48" value="Service" style="html=1;whiteSpace=wrap;" vertex="1" parent="1">
          <mxGeometry x="445" y="30" width="110" height="50" as="geometry" />
        </mxCell>
        <mxCell id="g8oJiTdSOKs6w7evgSrv-49" value="Extends" style="endArrow=block;endSize=16;endFill=0;html=1;rounded=0;entryX=0.5;entryY=1;entryDx=0;entryDy=0;" edge="1" parent="1" target="g8oJiTdSOKs6w7evgSrv-48">
          <mxGeometry width="160" relative="1" as="geometry">
            <mxPoint x="500" y="150" as="sourcePoint" />
            <mxPoint x="545" y="300" as="targetPoint" />
          </mxGeometry>
        </mxCell>
        <mxCell id="g8oJiTdSOKs6w7evgSrv-50" value="Kitchen" style="swimlane;fontStyle=1;align=center;verticalAlign=top;childLayout=stackLayout;horizontal=1;startSize=26;horizontalStack=0;resizeParent=1;resizeParentMax=0;resizeLast=0;collapsible=1;marginBottom=0;whiteSpace=wrap;html=1;" vertex="1" parent="1">
          <mxGeometry x="415" y="150" width="160" height="100" as="geometry" />
        </mxCell>
        <mxCell id="g8oJiTdSOKs6w7evgSrv-51" value="+&amp;nbsp;data&lt;span style=&quot;background-color: initial;&quot;&gt;:&amp;nbsp;&lt;/span&gt;DB()" style="text;strokeColor=none;fillColor=none;align=left;verticalAlign=top;spacingLeft=4;spacingRight=4;overflow=hidden;rotatable=0;points=[[0,0.5],[1,0.5]];portConstraint=eastwest;whiteSpace=wrap;html=1;" vertex="1" parent="g8oJiTdSOKs6w7evgSrv-50">
          <mxGeometry y="26" width="160" height="26" as="geometry" />
        </mxCell>
        <mxCell id="g8oJiTdSOKs6w7evgSrv-52" value="" style="line;strokeWidth=1;fillColor=none;align=left;verticalAlign=middle;spacingTop=-1;spacingLeft=3;spacingRight=3;rotatable=0;labelPosition=right;points=[];portConstraint=eastwest;strokeColor=inherit;" vertex="1" parent="g8oJiTdSOKs6w7evgSrv-50">
          <mxGeometry y="52" width="160" height="8" as="geometry" />
        </mxCell>
        <mxCell id="g8oJiTdSOKs6w7evgSrv-53" value="+&amp;nbsp;receive_new_orders&lt;span style=&quot;background-color: initial;&quot;&gt;()&lt;br&gt;&lt;/span&gt;+&amp;nbsp;make_order(int)" style="text;strokeColor=none;fillColor=none;align=left;verticalAlign=top;spacingLeft=4;spacingRight=4;overflow=hidden;rotatable=0;points=[[0,0.5],[1,0.5]];portConstraint=eastwest;whiteSpace=wrap;html=1;" vertex="1" parent="g8oJiTdSOKs6w7evgSrv-50">
          <mxGeometry y="60" width="160" height="40" as="geometry" />
        </mxCell>
        <mxCell id="g8oJiTdSOKs6w7evgSrv-54" value="Extends" style="endArrow=block;endSize=16;endFill=0;html=1;rounded=0;entryX=0.494;entryY=1.075;entryDx=0;entryDy=0;entryPerimeter=0;" edge="1" parent="1" target="g8oJiTdSOKs6w7evgSrv-53">
          <mxGeometry width="160" relative="1" as="geometry">
            <mxPoint x="494" y="310" as="sourcePoint" />
            <mxPoint x="545" y="300" as="targetPoint" />
            <Array as="points">
              <mxPoint x="494" y="280" />
            </Array>
          </mxGeometry>
        </mxCell>
        <mxCell id="g8oJiTdSOKs6w7evgSrv-59" value="Delivery" style="swimlane;fontStyle=0;childLayout=stackLayout;horizontal=1;startSize=26;fillColor=none;horizontalStack=0;resizeParent=1;resizeParentMax=0;resizeLast=0;collapsible=1;marginBottom=0;whiteSpace=wrap;html=1;" vertex="1" parent="1">
          <mxGeometry x="400" y="310" width="200" height="78" as="geometry" />
        </mxCell>
        <mxCell id="g8oJiTdSOKs6w7evgSrv-60" value="+&amp;nbsp;receive_orders_which_is_ready()" style="text;strokeColor=none;fillColor=none;align=left;verticalAlign=top;spacingLeft=4;spacingRight=4;overflow=hidden;rotatable=0;points=[[0,0.5],[1,0.5]];portConstraint=eastwest;whiteSpace=wrap;html=1;" vertex="1" parent="g8oJiTdSOKs6w7evgSrv-59">
          <mxGeometry y="26" width="200" height="26" as="geometry" />
        </mxCell>
        <mxCell id="g8oJiTdSOKs6w7evgSrv-61" value="+&amp;nbsp;receive_money_from_clients(int)" style="text;strokeColor=none;fillColor=none;align=left;verticalAlign=top;spacingLeft=4;spacingRight=4;overflow=hidden;rotatable=0;points=[[0,0.5],[1,0.5]];portConstraint=eastwest;whiteSpace=wrap;html=1;" vertex="1" parent="g8oJiTdSOKs6w7evgSrv-59">
          <mxGeometry y="52" width="200" height="26" as="geometry" />
        </mxCell>
        <mxCell id="g8oJiTdSOKs6w7evgSrv-63" value="DataBase" style="html=1;whiteSpace=wrap;" vertex="1" parent="1">
          <mxGeometry x="135" y="590" width="110" height="50" as="geometry" />
        </mxCell>
        <mxCell id="g8oJiTdSOKs6w7evgSrv-70" value="Order" style="html=1;whiteSpace=wrap;" vertex="1" parent="1">
          <mxGeometry x="-110" y="410" width="110" height="50" as="geometry" />
        </mxCell>
        <mxCell id="g8oJiTdSOKs6w7evgSrv-71" value="Feedback" style="html=1;whiteSpace=wrap;" vertex="1" parent="1">
          <mxGeometry x="60" y="410" width="110" height="50" as="geometry" />
        </mxCell>
        <mxCell id="g8oJiTdSOKs6w7evgSrv-72" value="юзер делает заказ" style="endArrow=open;endSize=12;dashed=1;html=1;rounded=0;exitX=0.244;exitY=1.091;exitDx=0;exitDy=0;exitPerimeter=0;entryX=0.5;entryY=0;entryDx=0;entryDy=0;" edge="1" parent="1" source="g8oJiTdSOKs6w7evgSrv-47" target="g8oJiTdSOKs6w7evgSrv-70">
          <mxGeometry width="160" relative="1" as="geometry">
            <mxPoint x="10" y="510" as="sourcePoint" />
            <mxPoint x="170" y="510" as="targetPoint" />
          </mxGeometry>
        </mxCell>
        <mxCell id="g8oJiTdSOKs6w7evgSrv-73" value="юзер может оставить отзыв" style="endArrow=open;endSize=12;dashed=1;html=1;rounded=0;exitX=0.706;exitY=1.023;exitDx=0;exitDy=0;exitPerimeter=0;entryX=0.5;entryY=0;entryDx=0;entryDy=0;" edge="1" parent="1" source="g8oJiTdSOKs6w7evgSrv-47" target="g8oJiTdSOKs6w7evgSrv-71">
          <mxGeometry x="0.3497" y="-7" width="160" relative="1" as="geometry">
            <mxPoint x="230" y="410" as="sourcePoint" />
            <mxPoint x="390" y="410" as="targetPoint" />
            <mxPoint as="offset" />
          </mxGeometry>
        </mxCell>
        <mxCell id="g8oJiTdSOKs6w7evgSrv-74" value="запись в базу данных" style="endArrow=open;endSize=12;dashed=1;html=1;rounded=0;exitX=0.5;exitY=1;exitDx=0;exitDy=0;entryX=0.5;entryY=0;entryDx=0;entryDy=0;" edge="1" parent="1" source="g8oJiTdSOKs6w7evgSrv-71" target="g8oJiTdSOKs6w7evgSrv-63">
          <mxGeometry x="0.4051" y="3" width="160" relative="1" as="geometry">
            <mxPoint x="230" y="410" as="sourcePoint" />
            <mxPoint x="390" y="410" as="targetPoint" />
            <mxPoint y="1" as="offset" />
          </mxGeometry>
        </mxCell>
        <mxCell id="g8oJiTdSOKs6w7evgSrv-75" value="запись в базу данных" style="endArrow=open;endSize=12;dashed=1;html=1;rounded=0;exitX=0.5;exitY=1;exitDx=0;exitDy=0;entryX=0.5;entryY=0;entryDx=0;entryDy=0;" edge="1" parent="1" source="g8oJiTdSOKs6w7evgSrv-70" target="g8oJiTdSOKs6w7evgSrv-63">
          <mxGeometry width="160" relative="1" as="geometry">
            <mxPoint x="-100" y="560" as="sourcePoint" />
            <mxPoint x="60" y="560" as="targetPoint" />
          </mxGeometry>
        </mxCell>
        <mxCell id="g8oJiTdSOKs6w7evgSrv-76" value="Purchase" style="html=1;whiteSpace=wrap;" vertex="1" parent="1">
          <mxGeometry x="210" y="430" width="110" height="50" as="geometry" />
        </mxCell>
        <mxCell id="g8oJiTdSOKs6w7evgSrv-79" value="New Orders" style="html=1;whiteSpace=wrap;" vertex="1" parent="1">
          <mxGeometry x="650" y="370" width="110" height="50" as="geometry" />
        </mxCell>
        <mxCell id="g8oJiTdSOKs6w7evgSrv-80" value="Ready Orders" style="html=1;whiteSpace=wrap;" vertex="1" parent="1">
          <mxGeometry x="360" y="470" width="110" height="50" as="geometry" />
        </mxCell>
        <mxCell id="g8oJiTdSOKs6w7evgSrv-86" value="чтение данных из базы" style="endArrow=open;endSize=12;dashed=1;html=1;rounded=0;exitX=1;exitY=0.25;exitDx=0;exitDy=0;entryX=0.5;entryY=1;entryDx=0;entryDy=0;" edge="1" parent="1" source="g8oJiTdSOKs6w7evgSrv-63" target="g8oJiTdSOKs6w7evgSrv-79">
          <mxGeometry x="0.0016" width="160" relative="1" as="geometry">
            <mxPoint x="255" y="613" as="sourcePoint" />
            <mxPoint x="329" y="530" as="targetPoint" />
            <Array as="points">
              <mxPoint x="705" y="603" />
            </Array>
            <mxPoint as="offset" />
          </mxGeometry>
        </mxCell>
        <mxCell id="g8oJiTdSOKs6w7evgSrv-87" value="чтение данных из базы" style="endArrow=open;endSize=12;dashed=1;html=1;rounded=0;exitX=1;exitY=0.25;exitDx=0;exitDy=0;entryX=0.5;entryY=1;entryDx=0;entryDy=0;" edge="1" parent="1" source="g8oJiTdSOKs6w7evgSrv-63" target="g8oJiTdSOKs6w7evgSrv-80">
          <mxGeometry x="0.2511" y="1" width="160" relative="1" as="geometry">
            <mxPoint x="255" y="613" as="sourcePoint" />
            <mxPoint x="480" y="530" as="targetPoint" />
            <mxPoint as="offset" />
          </mxGeometry>
        </mxCell>
        <mxCell id="g8oJiTdSOKs6w7evgSrv-90" value="получение новых заказов" style="endArrow=open;endSize=12;dashed=1;html=1;rounded=0;exitX=0.5;exitY=0;exitDx=0;exitDy=0;entryX=1;entryY=0.5;entryDx=0;entryDy=0;" edge="1" parent="1" source="g8oJiTdSOKs6w7evgSrv-79" target="g8oJiTdSOKs6w7evgSrv-53">
          <mxGeometry width="160" relative="1" as="geometry">
            <mxPoint x="335" y="480" as="sourcePoint" />
            <mxPoint x="720" y="200" as="targetPoint" />
            <Array as="points">
              <mxPoint x="705" y="230" />
            </Array>
          </mxGeometry>
        </mxCell>
        <mxCell id="g8oJiTdSOKs6w7evgSrv-91" value="получение готовых заказов" style="endArrow=open;endSize=12;dashed=1;html=1;rounded=0;exitX=0.5;exitY=0;exitDx=0;exitDy=0;entryX=0.435;entryY=0.962;entryDx=0;entryDy=0;entryPerimeter=0;" edge="1" parent="1" source="g8oJiTdSOKs6w7evgSrv-80" target="g8oJiTdSOKs6w7evgSrv-61">
          <mxGeometry x="-0.3302" y="10" width="160" relative="1" as="geometry">
            <mxPoint x="480" y="480" as="sourcePoint" />
            <mxPoint x="520" y="440" as="targetPoint" />
            <mxPoint y="-1" as="offset" />
          </mxGeometry>
        </mxCell>
        <mxCell id="g8oJiTdSOKs6w7evgSrv-92" value="запись в базу данных" style="endArrow=open;endSize=12;dashed=1;html=1;rounded=0;entryX=0.5;entryY=0;entryDx=0;entryDy=0;exitX=0.5;exitY=1;exitDx=0;exitDy=0;" edge="1" parent="1" source="g8oJiTdSOKs6w7evgSrv-76" target="g8oJiTdSOKs6w7evgSrv-63">
          <mxGeometry width="160" relative="1" as="geometry">
            <mxPoint x="230" y="430" as="sourcePoint" />
            <mxPoint x="390" y="430" as="targetPoint" />
          </mxGeometry>
        </mxCell>
        <mxCell id="g8oJiTdSOKs6w7evgSrv-93" value="запись информации об оплате заказа" style="endArrow=open;endSize=12;dashed=1;html=1;rounded=0;entryX=0.5;entryY=0;entryDx=0;entryDy=0;exitX=0.37;exitY=1;exitDx=0;exitDy=0;exitPerimeter=0;" edge="1" parent="1" source="g8oJiTdSOKs6w7evgSrv-61" target="g8oJiTdSOKs6w7evgSrv-76">
          <mxGeometry width="160" relative="1" as="geometry">
            <mxPoint x="230" y="430" as="sourcePoint" />
            <mxPoint x="300" y="380" as="targetPoint" />
          </mxGeometry>
        </mxCell>
        <mxCell id="g8oJiTdSOKs6w7evgSrv-95" value="" style="endArrow=block;startArrow=block;endFill=1;startFill=1;html=1;rounded=0;entryX=0;entryY=0.5;entryDx=0;entryDy=0;exitX=1;exitY=0.5;exitDx=0;exitDy=0;" edge="1" parent="1" source="g8oJiTdSOKs6w7evgSrv-45" target="g8oJiTdSOKs6w7evgSrv-61">
          <mxGeometry width="160" relative="1" as="geometry">
            <mxPoint x="170" y="320" as="sourcePoint" />
            <mxPoint x="330" y="320" as="targetPoint" />
          </mxGeometry>
        </mxCell>
        <mxCell id="g8oJiTdSOKs6w7evgSrv-96" value="апдейт статуса для готовых заказов" style="endArrow=open;endSize=12;dashed=1;html=1;rounded=0;exitX=1.006;exitY=0.225;exitDx=0;exitDy=0;exitPerimeter=0;entryX=0;entryY=0.5;entryDx=0;entryDy=0;" edge="1" parent="1" source="g8oJiTdSOKs6w7evgSrv-53" target="g8oJiTdSOKs6w7evgSrv-97">
          <mxGeometry width="160" relative="1" as="geometry">
            <mxPoint x="610" y="190" as="sourcePoint" />
            <mxPoint x="780" y="219" as="targetPoint" />
          </mxGeometry>
        </mxCell>
        <mxCell id="g8oJiTdSOKs6w7evgSrv-97" value="Ready Orders" style="html=1;whiteSpace=wrap;" vertex="1" parent="1">
          <mxGeometry x="830" y="190" width="110" height="50" as="geometry" />
        </mxCell>
        <mxCell id="g8oJiTdSOKs6w7evgSrv-98" value="запись в базу данных" style="endArrow=open;endSize=12;dashed=1;html=1;rounded=0;exitX=0.5;exitY=1;exitDx=0;exitDy=0;entryX=1;entryY=0.75;entryDx=0;entryDy=0;" edge="1" parent="1" source="g8oJiTdSOKs6w7evgSrv-97" target="g8oJiTdSOKs6w7evgSrv-63">
          <mxGeometry width="160" relative="1" as="geometry">
            <mxPoint x="780" y="348.5" as="sourcePoint" />
            <mxPoint x="940" y="348.5" as="targetPoint" />
            <Array as="points">
              <mxPoint x="885" y="630" />
            </Array>
            <mxPoint as="offset" />
          </mxGeometry>
        </mxCell>
      </root>
    </mxGraphModel>
  </diagram>
</mxfile>
